<?xml version="1.0" encoding="UTF-8" standalone="no"?>
<svg
   width="92mm"
   height="92mm"
   viewBox="0 0 92 92"
   version="1.1"
   id="svg1"
   sodipodi:docname="korhonen_search_favicon.svg"
   xml:space="preserve"
   inkscape:version="1.4.2 (ebf0e940d0, 2025-05-08)"
   xmlns:inkscape="http://www.inkscape.org/namespaces/inkscape"
   xmlns:sodipodi="http://sodipodi.sourceforge.net/DTD/sodipodi-0.dtd"
   xmlns="http://www.w3.org/2000/svg"
   xmlns:svg="http://www.w3.org/2000/svg"><defs
     id="defs1" /><sodipodi:namedview
     id="namedview1"
     pagecolor="#ffffff"
     bordercolor="#000000"
     borderopacity="0.25"
     inkscape:showpageshadow="2"
     inkscape:pageopacity="0.0"
     inkscape:pagecheckerboard="0"
     inkscape:deskcolor="#d1d1d1"
     inkscape:document-units="mm"
     inkscape:zoom="2.2635596"
     inkscape:cx="113.09621"
     inkscape:cy="115.52601"
     inkscape:window-width="1920"
     inkscape:window-height="1014"
     inkscape:window-x="0"
     inkscape:window-y="0"
     inkscape:window-maximized="1"
     inkscape:current-layer="g1" /><g
     transform="translate(-40.921 -17.417)"
     id="g1"><path
       style="fill:#f66400;stroke-width:0.431946;fill-opacity:1"
       d="M 266.68092,317.97063 C 249.83859,301.84183 227.561,280.50121 217.17516,270.54704 l -18.88333,-18.0985 -7.2494,3.59434 c -14.45117,7.16506 -28.06555,11.20821 -43.96481,13.0565 -7.11603,0.82724 -21.30543,0.93847 -27.89787,0.21869 C 93.217693,266.48349 69.856706,256.93774 49.77354,240.95739 44.396365,236.67872 33.518912,225.80803 29.311875,220.50844 13.21735,200.23423 3.627883,176.86411 0.86477292,151.1811 0.16382325,144.6658 0.27996926,130.0751 1.0884147,123.08638 2.9433243,107.05134 7.0278164,93.380273 14.310809,78.830146 37.381351,32.7393 85.005726,4.2905607 136.27897,5.9716485 c 19.86905,0.6514436 36.54295,4.8398555 54.42519,13.6713765 13.51689,6.675598 24.02566,14.226778 34.81696,25.018083 10.80535,10.805351 18.38405,21.3546 25.0129,34.816957 4.04467,8.214209 5.88431,12.834209 8.34858,20.966235 9.63949,31.81006 6.28122,67.85735 -9.10646,97.74783 l -1.9647,3.81642 1.25064,1.21314 c 0.68784,0.66723 22.78831,21.82654 49.11214,47.0207 26.32383,25.19416 47.82124,45.96437 47.77204,46.15604 -0.0824,0.32101 -31.93258,33.71376 -43.59688,45.70838 l -5.04603,5.18892 z M 146.64567,231.5295 c 41.1991,-6.45615 73.23042,-38.68906 79.27489,-79.77382 1.02918,-6.99542 1.13625,-19.49094 0.22515,-26.27537 C 223.90744,108.81313 217.64976,93.765232 207.19918,79.919393 203.83649,75.464207 194.71802,66.345736 190.26283,62.983045 176.41699,52.532466 161.3691,46.274792 144.70191,44.036514 137.91749,43.125416 125.42196,43.232491 118.42655,44.261669 87.374945,48.830036 61.053944,68.09221 47.285492,96.32396 c -4.498165,9.22333 -7.074261,17.3546 -8.708431,27.48754 -1.031385,6.39527 -1.029751,21.34572 0.0031,27.94048 6.780172,43.29334 40.584258,75.61039 84.092559,80.39334 5.05428,0.55563 18.74118,0.20404 23.973,-0.61582 z"
       id="path2"
       transform="matrix(0.26458333,0,0,0.26458333,40.921,17.417)" /><path
       style="fill:#f66400;fill-opacity:1;stroke-width:0.431946"
       d="m 192.3498,169.61104 c -4.32144,-2.30781 -7.96757,-4.30643 -8.10251,-4.44137 -0.13494,-0.13494 0.42894,-1.70474 1.25306,-3.48844 3.60155,-7.79508 5.19031,-16.35759 4.83356,-26.05018 -0.58367,-15.85772 -6.50803,-29.04911 -18.04764,-40.185483 -7.66071,-7.393022 -16.14185,-12.031145 -27.0105,-14.771377 -4.33888,-1.093928 -5.31811,-1.179263 -13.53224,-1.179263 -8.20685,0 -9.19597,0.08601 -13.51542,1.175211 -2.56329,0.646366 -6.60928,1.974314 -8.99108,2.950996 -2.3818,0.976681 -4.38332,1.707485 -4.44781,1.624007 -0.40883,-0.529156 -8.033314,-15.598296 -8.033314,-15.877148 0,-0.358445 4.171154,-2.364558 8.103014,-3.89714 2.86983,-1.118619 10.98289,-3.247427 15.22207,-3.99416 4.31649,-0.760352 19.04811,-0.755734 23.32508,0.0073 5.30175,0.945873 11.62833,2.634185 15.55785,4.151765 25.70391,9.926861 43.78405,31.689121 48.87579,58.829602 1.14045,6.07893 1.35885,18.79265 0.42184,24.556 -1.23624,7.60383 -3.42917,14.8599 -6.4503,21.34303 l -1.60428,3.44266 z"
       id="path3"
       transform="matrix(0.26458333,0,0,0.26458333,40.921,17.417)" /></g></svg>
